<svg class="logo__svg logo__svg--en" 
    height="150" preserveAspectRatio="xMinYMid meet" 
    viewBox="0 0 627 150" width="627" x="0" xmlns="http://www.w3.org/2000/svg" 
    xmlnsXlink="http://www.w3.org/1999/xlink" y="0">
    
    <defs>
        <g class="name" fill="currentColor" id="logo-en">
            <path 
                d="M121.4 79.4l-15-15-15.3 15.4a44.75 44.75 0 01-18.6 31.7l33.9 33.9 40.5-40.5-18.7-18.7-6.8 3.7V79.4z" 
                fill="#ed3c8a">
            </path>
            <path 
                d="M154.6 71.9v44.9h83.6V33.2h-56L203.9 45z" 
                fill="#ffc200">
            </path>
            <path 
                d="M124.6 5.3v79.3L197.3 45z" 
                fill="#faff1e">
            </path>
            <path 
                d="M46.4 33.1c-23.1 0-41.8 18.8-41.8 41.8 0 23.1 18.8 41.8 41.8 41.8 23.1 0 41.8-18.8 41.8-41.8 0-23.1-18.8-41.8-41.8-41.8z" 
                fill="#79aafa">
            </path>
            <path 
                d="M176.4 30l-55-30v75l-15-15-15 15.1v-.2a45 45 0 10-45 45c8.6 0 16.6-2.4 23.4-6.6l36.6 36.6 45-45-20.3-20.3 20.3-11.1V120h90V30h-65zm-130 86.7C23.3 116.7 4.6 98 4.6 74.9c0-23.1 18.8-41.8 41.8-41.8 23.1 0 41.8 18.8 41.8 41.8 0 23.1-18.8 41.8-41.8 41.8zM146.9 105l-40.5 40.5-33.9-33.9a44.75 44.75 0 0018.6-31.7l15.3-15.3 15 15V90l6.8-3.7 18.7 18.7zm-22.3-20.4V5.3L197.3 45l-72.7 39.6zm113.6 32.2h-83.6V71.9L203.9 45l-21.7-11.8h56v83.6z" 
                fill="#000000">
            </path>
            <g fill="currentColor">
                <path 
                    d="M284.9 76.2c5.8 0 9.2-2.6 10-7.8h111.4V45.2c-4.2-.1-6.3-.1-9.6-.1-9 0-11.9 4.8-11.9 10.2v.6c0 2.7.5 4.3 1.4 5.8v.3h-29.7v-4.3c0-8.3-3.6-12.6-12.3-12.6h-1.1c-2.2 0-5.6.4-8 1.6V34.8h-6.6v27.1H295V46.5h-6.6v19.3c0 3.1-1.3 4.6-4.4 4.6h-1.7v5.8h2.6zm158.9-14.3c-5.4 0-8.9-1.5-8.9-8.2v-3.6h-6c-.2 2-.3 4-.3 4.9 0 9.9 5.3 13.4 14.1 13.4h19.5c2.6 0 6.8-.3 9.6-1.2 2.9.9 6.2 1.2 9.2 1.2h42.7V57.6c0-8.3-3.6-12.6-12.2-12.6-2.7 0-6.1.7-8.9 2.6l2.6 4.9c2.1-1.1 4.4-1.4 6.1-1.4 4.1 0 6 1.8 6 6.1V62h-37.8v-.2c2.1-1.7 3.3-4 3.3-7.1V54c0-6.6-5.4-9.5-11-9.5-5.3 0-11 2.6-11 9.5v.7c0 2.9.8 5.4 3.1 7.1v.2h-20.1zm170-15.4c-9 0-12.3 4.3-12.3 12.6v.3c0 .9.1 1.8.1 2.6h-27.4V46.6h-6.6V62h-28.5V34.8h-6.6v33.6h71.6c2.6 1.7 5 2.2 7.9 2.2h1.1c6.8 0 10.5-4.3 10.5-10.8V46.6c-4.2-.1-6.5-.1-9.8-.1zm-270.4 4.6c4.1 0 6.7 1.8 6.7 6.3V62h-15v-9.2c1.6-1.2 5.1-1.6 6.9-1.6h1.4zm268.8 13.3c-2.7 0-4.2-1.6-4.2-5.2v-.9c0-4.3 1.5-5.8 5.9-5.8h3.3v6.7c0 3.6-1.3 5.2-4.3 5.2h-.7zm-216.3-2.5c-3.2 0-4.9-1.5-4.9-5.7v-.5c0-3.6 1.9-5 5.6-5h3.4V62h-4.1zm71-7.7c0-3.1 1.9-4.5 4.9-4.5 2.6 0 4.8 1.3 4.8 4.5v.7c0 4.1-2 5.5-4.8 5.9-2.6-.5-4.9-1.7-4.9-5.9v-.7zm1.9-12.8h6.6v-6.6h-6.6v6.6zm-80.2 0h6.1v-6.6h-6.1v6.6zm174.6 0h6.1v-6.6h-6.1v6.6zm-165.3 0h6.1v-6.6h-6.1v6.6zm174.6 0h6.1v-6.6h-6.1v6.6z">
                </path>
                <path 
                    d="M281 102.1c0 7.5 4 11.5 11.2 11.5 2.1 0 4.2-.4 5.8-1.3l3.2 2.8 4.8-4-3.3-3.1c1.3-1.9 1.9-4.7 1.9-8.5 0-7.5-3.9-11.5-11.2-11.5-7.3 0-11.2 4-11.2 11.6zm6.2 0c0-5 2-7.1 5-7.1 3.1 0 4.9 2.2 4.9 7.1 0 5-2 7.1-4.9 7.1-3.1 0-5-2.2-5-7.1zm24.7-11.4v20.7h6.1v-20.7h-6.1zm0-6.5v5h6.1v-5h-6.1zm14.8 10.7v.3c0 7.6 3.7 11 9.4 11 4.2 0 7.5-2 8.7-5.3l-5.4-2.2c-.6 1.4-1.7 2.3-3.3 2.3-2.5 0-3.7-2-3.7-5v-.2h12.6v-.3c0-7.6-3.5-10.8-9.3-10.8-5.4 0-8.8 3.1-8.8 10zm5.9-4.3c0-2.6 1.1-3.9 2.9-3.9s2.9 1.3 2.9 3.9v.2h-5.8v-.2zm21.5 11.7h6.1v-8.2c0-1.7.4-2.8 2.3-2.8h2.3v-6.1h-1.5c-2.4 0-3.9 1-4.6 2.7l-.3-.2h-4.3v14.5zm14.8-6.6v.2c0 3.5 2 6.6 5.8 6.6 2.5 0 3.9-1.1 4.8-2.8l.2.1 4.1 2.1c-.7 1.5-2.4 4.4-9.5 4.4-7.6 0-10.7-4.8-10.7-10.8v-.3c0-6 3.2-10.8 10.1-10.8 7.1 0 9.6 5 9.6 9.9v.3h-14.4zm8.3-2.4v-.2c0-2.9-1.5-4.8-3.6-4.8-2.2 0-3.6 1.9-3.6 4.8v.2h7.2zm16.5 2.6c0 4.6 3 7.2 8 7.2 5.3 0 7.8-2.5 7.8-5.6 0-2.6-1.7-4.5-5.1-5.2l-2.6-.6c-2.1-.5-2.9-1.1-2.9-2.2 0-1.5 1.3-2.4 3.3-2.4 1.7 0 3.3.5 4.5 1.5l1.5-4.6c-1.6-1-4-1.6-6.4-1.6-5 0-7.4 2.5-7.4 5.5 0 2.5 1.8 4.6 4.8 5.2l2.8.6c2.3.5 3.2 1 3.2 2.3 0 1.5-1.2 2.4-3.4 2.4-2 0-3.8-.7-5.1-1.9l-1.5 4.9zm17.1-8.5v.2c0 7.5 4.2 10.9 9.4 10.9 3.3 0 5.3-1.2 6.5-2.9l.3.2 1.5 2.6h5.6v-20.7h-6.1v7.6c-1.3-1.7-3.3-2.7-5.6-2.7-4.8 0-8.6 4-8.6 10zm6 0v-.2c0-3.1 1.7-5 4-5 2.4 0 4 1.9 4 5v.2c0 3-1.7 4.9-4 4.9-2.3 0-4-1.9-4-4.9zm19.9-10.7h6.1v20.7h-6.1v-20.7zm22.2 9.1c-1.1-.3-1.9-.6-1.9-1.5 0-.8.7-1.4 2.1-1.4 1.5 0 2.9.4 4 1l1.1-5.2c-1.4-.5-3.4-1.1-6.1-1.1-5.2 0-7.6 2.6-7.6 6.2 0 2.8 1.6 4.8 4.8 5.6l1.8.5c1.3.4 2 .6 2 1.4 0 .9-.8 1.6-2.4 1.6-1.8 0-3.5-.6-4.9-1.4l-1.2 5.2c1.6.9 3.9 1.5 6.3 1.5 5.4 0 7.8-2.6 7.8-6.3 0-3.1-2-4.8-5.1-5.6l-1.9-.5z">
                </path>
            </g>
        </g>
    </defs>

    <g class="name" fill="none" fill-rule="evenodd">
        <use fill="#FFF" xlink:href="#logo-en">
        </use>
        <use xlinkHref="#logo-en">
        </use>
    </g>
</svg>
